<svg width="768" height="12" viewBox="0 0 768 12" fill="none" xmlns="http://www.w3.org/2000/svg">
<path opacity="0.6" d="M0 1C8.34002 1 8.34001 11 16.68 11C25.02 11 25.02 1 33.3601 1C41.7001 1 41.7001 11 50.0206 11C58.3608 11 58.3608 1 66.681 1C75.0212 1 75.0213 11 83.3415 11C91.6817 11 91.6817 1 100.021 1C108.361 1 108.361 11 116.702 11C125.041 11 125.041 1 133.381 1C141.722 1 141.722 11 150.062 11C158.401 11 158.401 1 166.742 1C175.082 1 175.082 11 183.422 11C191.762 11 191.762 1 200.102 1C208.442 1 208.442 11 216.762 11C225.103 11 225.102 1 233.423 1C241.763 1 241.763 11 250.083 11C258.423 11 258.423 1 266.763 1C275.103 1 275.103 11 283.443 11C291.783 11 291.783 1 300.123 1C308.463 1 308.463 11 316.803 11C325.143 11 325.143 1 333.464 1C341.804 1 341.804 11 350.124 11C358.465 11 358.465 1 366.785 1C375.125 1 375.125 11 383.465 11C391.805 11 391.805 1 400.145 1C408.485 1 408.485 11 416.825 11C425.165 11 425.165 1 433.505 1C441.845 1 441.845 11 450.185 11C458.525 11 458.525 1 466.865 1C475.205 1 475.205 11 483.545 11C491.885 11 491.885 1 500.206 1C508.546 1 508.546 11 516.866 11C525.206 11 525.206 1 533.526 1C541.867 1 541.867 11 550.206 11C558.546 11 558.546 1 566.887 1C575.226 1 575.226 11 583.566 11C591.907 11 591.907 1 600.247 1C608.586 1 608.586 11 616.927 11C625.267 11 625.267 1 633.607 1C641.947 1 641.947 11 650.287 11C658.627 11 658.627 1 666.947 1C675.288 1 675.288 11 683.608 11C691.948 11 691.948 1 700.268 1C708.608 1 708.608 11 716.948 11C725.288 11 725.288 1 733.628 1M734.64 1C742.98 1 742.98 11 751.32 11C759.66 11 759.66 1 768 1" stroke="#F5F6F7" stroke-miterlimit="10" stroke-linecap="square"/>
</svg>
