<svg width="96" height="10" viewBox="0 0 96 10" fill="none" xmlns="http://www.w3.org/2000/svg">
<path d="M10.776 0.599999H11.88L9.24 9H8.112L5.988 2.28L3.864 9H2.748L0.108 0.599999H1.212L3.312 7.776L5.544 0.599999H6.444L8.676 7.776L10.776 0.599999ZM12.3696 5.568H16.6536V6.48H12.3696V5.568ZM27.8151 0.599999H28.9191L26.2791 9H25.1511L23.0271 2.28L20.9031 9H19.7871L17.1471 0.599999H18.2511L20.3511 7.776L22.5831 0.599999H23.4831L25.7151 7.776L27.8151 0.599999ZM29.8283 9H28.7363L32.3963 0.599999H33.5123L37.1603 9H36.0803L35.2163 6.972H30.6923L29.8283 9ZM32.8163 1.956L31.0883 6.036H34.8203L33.0803 1.956C33.0643 1.916 33.0203 1.808 32.9483 1.632C32.8763 1.816 32.8323 1.924 32.8163 1.956ZM41.3357 9H40.2917L36.8117 0.599999H37.8917L40.8077 7.872L43.7357 0.599999H44.8157L41.3357 9ZM46.0571 0.599999H51.7211V1.56H47.0651V4.284H51.3611V5.244H47.0651V8.04H51.7931V9H46.0571V0.599999ZM64.5868 2.904C64.8588 3.472 64.9948 4.104 64.9948 4.8C64.9948 5.496 64.8588 6.128 64.5868 6.696C64.3228 7.264 63.9708 7.72 63.5308 8.064C63.0908 8.408 62.6068 8.676 62.0788 8.868C61.5508 9.052 61.0148 9.144 60.4708 9.144C59.9268 9.144 59.3908 9.052 58.8628 8.868C58.3348 8.676 57.8508 8.408 57.4108 8.064C56.9708 7.72 56.6148 7.264 56.3428 6.696C56.0788 6.128 55.9468 5.496 55.9468 4.8C55.9468 4.104 56.0788 3.472 56.3428 2.904C56.6148 2.336 56.9708 1.88 57.4108 1.536C57.8508 1.192 58.3348 0.928 58.8628 0.744C59.3908 0.552 59.9268 0.456 60.4708 0.456C61.0148 0.456 61.5508 0.552 62.0788 0.744C62.6068 0.928 63.0908 1.192 63.5308 1.536C63.9708 1.88 64.3228 2.336 64.5868 2.904ZM56.6788 3.072C56.4388 3.584 56.3188 4.16 56.3188 4.8C56.3188 5.44 56.4388 6.02 56.6788 6.54C56.9268 7.052 57.2508 7.468 57.6508 7.788C58.0508 8.108 58.4908 8.356 58.9708 8.532C59.4588 8.7 59.9588 8.784 60.4708 8.784C60.9828 8.784 61.4788 8.7 61.9588 8.532C62.4468 8.356 62.8908 8.108 63.2908 7.788C63.6908 7.468 64.0108 7.052 64.2508 6.54C64.4988 6.02 64.6228 5.44 64.6228 4.8C64.6228 4.16 64.4988 3.584 64.2508 3.072C64.0108 2.552 63.6908 2.132 63.2908 1.812C62.8908 1.492 62.4468 1.248 61.9588 1.08C61.4788 0.904 60.9828 0.816 60.4708 0.816C59.9588 0.816 59.4588 0.904 58.9708 1.08C58.4908 1.248 58.0508 1.492 57.6508 1.812C57.2508 2.132 56.9268 2.552 56.6788 3.072ZM59.4868 7.152H58.7668V2.436H60.7948C61.0908 2.436 61.3628 2.472 61.6108 2.544C61.8588 2.616 62.0828 2.768 62.2828 3C62.4908 3.232 62.5948 3.536 62.5948 3.912C62.5948 4.632 62.2508 5.088 61.5628 5.28L62.8828 7.152H62.0548L60.8308 5.388H60.6748H59.4868V7.152ZM59.4868 3.132V4.692H60.7228C60.8828 4.692 61.0108 4.688 61.1068 4.68C61.2028 4.664 61.3188 4.636 61.4548 4.596C61.5988 4.556 61.7068 4.48 61.7788 4.368C61.8508 4.248 61.8868 4.096 61.8868 3.912C61.8868 3.728 61.8508 3.58 61.7788 3.468C61.7068 3.348 61.5988 3.268 61.4548 3.228C61.3188 3.188 61.2028 3.164 61.1068 3.156C61.0108 3.14 60.8828 3.132 60.7228 3.132H59.4868ZM69.359 1.488C70.119 0.96 70.991 0.696 71.975 0.696C72.823 0.696 73.499 0.888 74.003 1.272C74.507 1.656 74.759 2.192 74.759 2.88C74.759 3.208 74.695 3.516 74.567 3.804C74.447 4.092 74.263 4.356 74.015 4.596C73.775 4.836 73.539 5.04 73.307 5.208C73.083 5.368 72.799 5.548 72.455 5.748C72.415 5.772 72.291 5.844 72.083 5.964C71.883 6.084 71.755 6.16 71.699 6.192C71.651 6.224 71.539 6.296 71.363 6.408C71.195 6.512 71.083 6.588 71.027 6.636C70.979 6.684 70.891 6.76 70.763 6.864C70.643 6.968 70.559 7.056 70.511 7.128C70.471 7.2 70.415 7.292 70.343 7.404C70.279 7.508 70.235 7.612 70.211 7.716C70.187 7.82 70.175 7.932 70.175 8.052L74.819 8.04V9H69.071V8.52C69.071 8.072 69.143 7.668 69.287 7.308C69.431 6.94 69.635 6.628 69.899 6.372C70.171 6.108 70.439 5.888 70.703 5.712C70.967 5.528 71.275 5.332 71.627 5.124C71.707 5.084 71.767 5.052 71.807 5.028C72.535 4.604 73.011 4.28 73.235 4.056C73.579 3.704 73.751 3.308 73.751 2.868C73.751 2.468 73.587 2.164 73.259 1.956C72.939 1.74 72.483 1.632 71.891 1.632C71.027 1.632 70.183 1.92 69.359 2.496V1.488ZM76.9576 7.98C76.3496 7.204 76.0456 6.184 76.0456 4.92C76.0456 3.656 76.3496 2.636 76.9576 1.86C77.5656 1.084 78.4616 0.696 79.6456 0.696C80.8376 0.696 81.7376 1.084 82.3456 1.86C82.9536 2.628 83.2576 3.648 83.2576 4.92C83.2576 6.192 82.9536 7.216 82.3456 7.992C81.7376 8.76 80.8376 9.144 79.6456 9.144C78.4616 9.144 77.5656 8.756 76.9576 7.98ZM81.5896 7.344C82.0216 6.776 82.2376 5.968 82.2376 4.92C82.2376 3.872 82.0216 3.068 81.5896 2.508C81.1656 1.94 80.5176 1.656 79.6456 1.656C78.7736 1.656 78.1256 1.94 77.7016 2.508C77.2776 3.068 77.0656 3.872 77.0656 4.92C77.0656 5.968 77.2776 6.776 77.7016 7.344C78.1256 7.904 78.7736 8.184 79.6456 8.184C80.5176 8.184 81.1656 7.904 81.5896 7.344ZM84.6871 1.488C85.4471 0.96 86.3191 0.696 87.3031 0.696C88.1511 0.696 88.8271 0.888 89.3311 1.272C89.8351 1.656 90.0871 2.192 90.0871 2.88C90.0871 3.208 90.0231 3.516 89.8951 3.804C89.7751 4.092 89.5911 4.356 89.3431 4.596C89.1031 4.836 88.8671 5.04 88.6351 5.208C88.4111 5.368 88.1271 5.548 87.7831 5.748C87.7431 5.772 87.6191 5.844 87.4111 5.964C87.2111 6.084 87.0831 6.16 87.0271 6.192C86.9791 6.224 86.8671 6.296 86.6911 6.408C86.5231 6.512 86.4111 6.588 86.3551 6.636C86.3071 6.684 86.2191 6.76 86.0911 6.864C85.9711 6.968 85.8871 7.056 85.8391 7.128C85.7991 7.2 85.7431 7.292 85.6711 7.404C85.6071 7.508 85.5631 7.612 85.5391 7.716C85.5151 7.82 85.5031 7.932 85.5031 8.052L90.1471 8.04V9H84.3991V8.52C84.3991 8.072 84.4711 7.668 84.6151 7.308C84.7591 6.94 84.9631 6.628 85.2271 6.372C85.4991 6.108 85.7671 5.888 86.0311 5.712C86.2951 5.528 86.6031 5.332 86.9551 5.124C87.0351 5.084 87.0951 5.052 87.1351 5.028C87.8631 4.604 88.3391 4.28 88.5631 4.056C88.9071 3.704 89.0791 3.308 89.0791 2.868C89.0791 2.468 88.9151 2.164 88.5871 1.956C88.2671 1.74 87.8111 1.632 87.2191 1.632C86.3551 1.632 85.5111 1.92 84.6871 2.496V1.488ZM93.3777 0.84H94.1217V8.04H95.6457V9H91.3977V8.04H93.1137V1.908L91.3977 2.556V1.596L93.3777 0.84Z" fill="#A1A6B4"/>
</svg>
