<svg width="132" height="24" viewBox="0 0 132 24" fill="none" xmlns="http://www.w3.org/2000/svg">
<g clip-path="url(#clip0_24531_5304)">
<path d="M12 2C14.717 2 15.056 2.01 16.122 2.06C17.187 2.11 17.912 2.277 18.55 2.525C19.21 2.779 19.766 3.123 20.322 3.678C20.8305 4.1779 21.224 4.78259 21.475 5.45C21.722 6.087 21.89 6.813 21.94 7.878C21.987 8.944 22 9.283 22 12C22 14.717 21.99 15.056 21.94 16.122C21.89 17.187 21.722 17.912 21.475 18.55C21.2247 19.2178 20.8311 19.8226 20.322 20.322C19.822 20.8303 19.2173 21.2238 18.55 21.475C17.913 21.722 17.187 21.89 16.122 21.94C15.056 21.987 14.717 22 12 22C9.283 22 8.944 21.99 7.878 21.94C6.813 21.89 6.088 21.722 5.45 21.475C4.78233 21.2245 4.17753 20.8309 3.678 20.322C3.16941 19.8222 2.77593 19.2175 2.525 18.55C2.277 17.913 2.11 17.187 2.06 16.122C2.013 15.056 2 14.717 2 12C2 9.283 2.01 8.944 2.06 7.878C2.11 6.812 2.277 6.088 2.525 5.45C2.77524 4.78218 3.1688 4.17732 3.678 3.678C4.17767 3.16923 4.78243 2.77573 5.45 2.525C6.088 2.277 6.812 2.11 7.878 2.06C8.944 2.013 9.283 2 12 2ZM12 7C10.6739 7 9.40215 7.52678 8.46447 8.46447C7.52678 9.40215 7 10.6739 7 12C7 13.3261 7.52678 14.5979 8.46447 15.5355C9.40215 16.4732 10.6739 17 12 17C13.3261 17 14.5979 16.4732 15.5355 15.5355C16.4732 14.5979 17 13.3261 17 12C17 10.6739 16.4732 9.40215 15.5355 8.46447C14.5979 7.52678 13.3261 7 12 7ZM18.5 6.75C18.5 6.41848 18.3683 6.10054 18.1339 5.86612C17.8995 5.6317 17.5815 5.5 17.25 5.5C16.9185 5.5 16.6005 5.6317 16.3661 5.86612C16.1317 6.10054 16 6.41848 16 6.75C16 7.08152 16.1317 7.39946 16.3661 7.63388C16.6005 7.8683 16.9185 8 17.25 8C17.5815 8 17.8995 7.8683 18.1339 7.63388C18.3683 7.39946 18.5 7.08152 18.5 6.75ZM12 9C12.7956 9 13.5587 9.31607 14.1213 9.87868C14.6839 10.4413 15 11.2044 15 12C15 12.7956 14.6839 13.5587 14.1213 14.1213C13.5587 14.6839 12.7956 15 12 15C11.2044 15 10.4413 14.6839 9.87868 14.1213C9.31607 13.5587 9 12.7956 9 12C9 11.2044 9.31607 10.4413 9.87868 9.87868C10.4413 9.31607 11.2044 9 12 9Z" fill="#A1A6B4"/>
</g>
<g clip-path="url(#clip1_24531_5304)">
<path d="M69.78 22V14.26H72.3722L72.76 11.2511H69.78V9.33111C69.78 8.46 70.0222 7.86556 71.2711 7.86556H72.8644V5.17444C72.0931 5.09261 71.3179 5.05292 70.5422 5.05556C68.2456 5.05556 66.6733 6.45778 66.6733 9.03333V11.2511H64.0756V14.26H66.6733V22H57.1111C56.8164 22 56.5338 21.8829 56.3254 21.6746C56.1171 21.4662 56 21.1836 56 20.8889V3.11111C56 2.81643 56.1171 2.53381 56.3254 2.32544C56.5338 2.11706 56.8164 2 57.1111 2H74.8889C75.1836 2 75.4662 2.11706 75.6746 2.32544C75.8829 2.53381 76 2.81643 76 3.11111V20.8889C76 21.1836 75.8829 21.4662 75.6746 21.6746C75.4662 21.8829 75.1836 22 74.8889 22H69.78Z" fill="#A1A6B4"/>
</g>
<g clip-path="url(#clip2_24531_5304)">
<path d="M130.162 5.65593C129.399 5.99362 128.589 6.2154 127.76 6.31393C128.634 5.79136 129.288 4.96894 129.6 3.99993C128.78 4.48793 127.881 4.82993 126.944 5.01493C126.315 4.34151 125.48 3.89489 124.571 3.74451C123.662 3.59413 122.728 3.74842 121.915 4.18338C121.103 4.61834 120.456 5.30961 120.077 6.14972C119.698 6.98983 119.607 7.93171 119.818 8.82893C118.155 8.74558 116.528 8.31345 115.043 7.56059C113.558 6.80773 112.248 5.75097 111.198 4.45893C110.826 5.09738 110.631 5.82315 110.632 6.56193C110.632 8.01193 111.37 9.29293 112.492 10.0429C111.828 10.022 111.179 9.84271 110.598 9.51993V9.57193C110.598 10.5376 110.932 11.4735 111.544 12.221C112.155 12.9684 113.007 13.4814 113.953 13.6729C113.337 13.84 112.69 13.8646 112.063 13.7449C112.33 14.5762 112.85 15.3031 113.551 15.824C114.251 16.3449 115.097 16.6337 115.97 16.6499C115.103 17.3313 114.109 17.8349 113.047 18.1321C111.985 18.4293 110.874 18.5142 109.779 18.3819C111.691 19.6114 113.916 20.264 116.189 20.2619C123.882 20.2619 128.089 13.8889 128.089 8.36193C128.089 8.18193 128.084 7.99993 128.076 7.82193C128.895 7.23009 129.602 6.49695 130.163 5.65693L130.162 5.65593Z" fill="#A1A6B4"/>
</g>
<defs>
<clipPath id="clip0_24531_5304">
<rect width="24" height="24" fill="white"/>
</clipPath>
<clipPath id="clip1_24531_5304">
<rect width="24" height="24" fill="white" transform="translate(54)"/>
</clipPath>
<clipPath id="clip2_24531_5304">
<rect width="24" height="24" fill="white" transform="translate(108)"/>
</clipPath>
</defs>
</svg>
