<svg width="192" height="16" viewBox="0 0 192 16" fill="none" xmlns="http://www.w3.org/2000/svg">
<g clip-path="url(#clip0_88391_2275)">
<path fill-rule="evenodd" clip-rule="evenodd" d="M1.3 11.331L8.29606 6.5L1.3 1.66897V11.331ZM0.666238 1.23131L0.669532 1.23361L0.666238 1.23131ZM1.41031 12.8347L9.64301 7.14971C10.119 6.82485 10.119 6.17514 9.64301 5.85029L1.41031 0.165315C0.828559 -0.240754 0 0.149072 0 0.815026V12.185C0 12.8509 0.828559 13.2408 1.41031 12.8347Z" fill="#A1A6B4"/>
<path d="M17.088 1.984C18.1013 1.28 19.264 0.927999 20.576 0.927999C21.7067 0.927999 22.608 1.184 23.28 1.696C23.952 2.208 24.288 2.92267 24.288 3.84C24.288 4.27733 24.2027 4.688 24.032 5.072C23.872 5.456 23.6267 5.808 23.296 6.128C22.976 6.448 22.6613 6.72 22.352 6.944C22.0533 7.15733 21.6747 7.39733 21.216 7.664C21.1627 7.696 20.9973 7.792 20.72 7.952C20.4533 8.112 20.2827 8.21333 20.208 8.256C20.144 8.29867 19.9947 8.39467 19.76 8.544C19.536 8.68267 19.3867 8.784 19.312 8.848C19.248 8.912 19.1307 9.01333 18.96 9.152C18.8 9.29067 18.688 9.408 18.624 9.504C18.5707 9.6 18.496 9.72267 18.4 9.872C18.3147 10.0107 18.256 10.1493 18.224 10.288C18.192 10.4267 18.176 10.576 18.176 10.736L24.368 10.72V12H16.704V11.36C16.704 10.7627 16.8 10.224 16.992 9.744C17.184 9.25333 17.456 8.83733 17.808 8.496C18.1707 8.144 18.528 7.85067 18.88 7.616C19.232 7.37067 19.6427 7.10933 20.112 6.832C20.2187 6.77867 20.2987 6.736 20.352 6.704C21.3227 6.13867 21.9573 5.70667 22.256 5.408C22.7147 4.93867 22.944 4.41067 22.944 3.824C22.944 3.29067 22.7253 2.88533 22.288 2.608C21.8613 2.32 21.2533 2.176 20.464 2.176C19.312 2.176 18.1867 2.56 17.088 3.328V1.984ZM26.6915 1.12H33.2195V2.4H27.9555L27.7635 5.472C28.3395 5.312 28.9582 5.232 29.6195 5.232C30.1635 5.232 30.6702 5.296 31.1395 5.424C31.6088 5.54133 32.0408 5.73333 32.4355 6C32.8408 6.256 33.1608 6.61867 33.3955 7.088C33.6302 7.54667 33.7475 8.09067 33.7475 8.72C33.7475 9.79733 33.3475 10.6453 32.5475 11.264C31.7582 11.8827 30.7502 12.192 29.5235 12.192C28.2008 12.192 27.0382 11.9467 26.0355 11.456V10.176C26.9955 10.688 28.1048 10.944 29.3635 10.944C30.2808 10.944 31.0115 10.752 31.5555 10.368C32.1102 9.984 32.3875 9.43467 32.3875 8.72C32.3875 7.20533 31.3102 6.448 29.1555 6.448C28.2168 6.448 27.2782 6.61867 26.3395 6.96L26.6915 1.12ZM35.6211 3.744C35.6211 2.976 35.9571 2.31467 36.6291 1.76C37.3011 1.20533 38.2878 0.927999 39.5891 0.927999C40.7945 0.927999 41.7651 1.22133 42.5011 1.808C43.2371 2.39467 43.6158 3.09867 43.6371 3.92C43.6691 5.04 43.1731 5.95733 42.1491 6.672C43.3971 7.29067 44.0211 8.144 44.0211 9.232C44.0211 10.064 43.6531 10.768 42.9171 11.344C42.1918 11.9093 41.1145 12.192 39.6851 12.192C38.2665 12.192 37.1678 11.8827 36.3891 11.264C35.6211 10.6453 35.2371 9.89333 35.2371 9.008C35.2371 8.47467 35.3918 7.94667 35.7011 7.424C36.0211 6.89067 36.4851 6.44267 37.0931 6.08C36.1118 5.48267 35.6211 4.704 35.6211 3.744ZM39.7491 7.104C39.1945 6.95467 38.6878 6.79467 38.2291 6.624C37.6958 6.88 37.2851 7.21067 36.9971 7.616C36.7198 8.02133 36.5811 8.43733 36.5811 8.864C36.5811 9.51467 36.8478 10.0267 37.3811 10.4C37.9251 10.7627 38.7038 10.944 39.7171 10.944C40.5705 10.944 41.2745 10.7947 41.8291 10.496C42.3945 10.1867 42.6771 9.78667 42.6771 9.296C42.6771 8.88 42.5278 8.528 42.2291 8.24C41.9411 7.94133 41.6585 7.73867 41.3811 7.632C41.1038 7.52533 40.6451 7.376 40.0051 7.184C39.8878 7.152 39.8025 7.12533 39.7491 7.104ZM42.2931 4.16C42.2931 3.59467 42.0531 3.12533 41.5731 2.752C41.0931 2.368 40.4211 2.176 39.5571 2.176C38.7678 2.176 38.1385 2.32533 37.6691 2.624C37.1998 2.912 36.9651 3.28 36.9651 3.728C36.9651 4.03733 37.0291 4.30933 37.1571 4.544C37.2958 4.768 37.4985 4.96 37.7651 5.12C38.0425 5.26933 38.2931 5.392 38.5171 5.488C38.7411 5.57333 39.0398 5.66933 39.4131 5.776C39.4558 5.78667 39.4878 5.79733 39.5091 5.808C39.5305 5.808 39.5571 5.81333 39.5891 5.824C39.6211 5.83467 39.6531 5.84533 39.6851 5.856C39.7171 5.86667 39.8985 5.92 40.2291 6.016C40.5705 6.10133 40.8318 6.17067 41.0131 6.224C41.8665 5.66933 42.2931 4.98133 42.2931 4.16Z" fill="#A1A6B4"/>
</g>
<g clip-path="url(#clip1_88391_2275)">
<path d="M84.425 0C83.294 0 82.2085 0.5297 81.5 1.36676C80.7915 0.5297 79.706 0 78.575 0C76.573 0 75 1.58256 75 3.59673C75 6.06866 77.21 8.08283 80.5575 11.1433L81.5 12L82.4425 11.1368C85.79 8.08283 88 6.06866 88 3.59673C88 1.58256 86.427 0 84.425 0ZM81.565 10.1689L81.5 10.2343L81.435 10.1689C78.341 7.35041 76.3 5.48665 76.3 3.59673C76.3 2.28883 77.275 1.3079 78.575 1.3079C79.576 1.3079 80.551 1.95531 80.8955 2.85123H82.111C82.449 1.95531 83.424 1.3079 84.425 1.3079C85.725 1.3079 86.7 2.28883 86.7 3.59673C86.7 5.48665 84.659 7.35041 81.565 10.1689Z" fill="#A1A6B4"/>
<path d="M97.488 1.12H98.48V10.72H100.512V12H94.848V10.72H97.136V2.544L94.848 3.408V2.128L97.488 1.12ZM102.907 10.64C102.096 9.60533 101.691 8.24533 101.691 6.56C101.691 4.87467 102.096 3.51467 102.907 2.48C103.718 1.44533 104.912 0.927999 106.491 0.927999C108.08 0.927999 109.28 1.44533 110.091 2.48C110.902 3.504 111.307 4.864 111.307 6.56C111.307 8.256 110.902 9.62133 110.091 10.656C109.28 11.68 108.08 12.192 106.491 12.192C104.912 12.192 103.718 11.6747 102.907 10.64ZM109.083 9.792C109.659 9.03467 109.947 7.95733 109.947 6.56C109.947 5.16267 109.659 4.09067 109.083 3.344C108.518 2.58667 107.654 2.208 106.491 2.208C105.328 2.208 104.464 2.58667 103.899 3.344C103.334 4.09067 103.051 5.16267 103.051 6.56C103.051 7.95733 103.334 9.03467 103.899 9.792C104.464 10.5387 105.328 10.912 106.491 10.912C107.654 10.912 108.518 10.5387 109.083 9.792ZM118.461 1.12H119.917V8.336H121.965V9.584H119.917V12H118.589V9.584H112.525V8.384L118.461 1.12ZM118.589 8.336V2.928L114.173 8.336H118.589Z" fill="#A1A6B4"/>
</g>
<g clip-path="url(#clip2_88391_2275)">
<path d="M163 9.18876C162.493 9.18876 162.04 9.38454 161.693 9.69127L156.94 6.98293C156.973 6.83283 157 6.68273 157 6.5261C157 6.36948 156.973 6.21938 156.94 6.06928L161.64 3.38705C162 3.71335 162.473 3.91566 163 3.91566C164.107 3.91566 165 3.04116 165 1.95783C165 0.874498 164.107 0 163 0C161.893 0 161 0.874498 161 1.95783C161 2.11446 161.027 2.26456 161.06 2.41466L156.36 5.09689C156 4.77058 155.527 4.56827 155 4.56827C153.893 4.56827 153 5.44277 153 6.5261C153 7.60944 153.893 8.48394 155 8.48394C155.527 8.48394 156 8.28163 156.36 7.95532L161.107 10.6702C161.073 10.8072 161.053 10.9508 161.053 11.0944C161.053 12.1451 161.927 13 163 13C164.073 13 164.947 12.1451 164.947 11.0944C164.947 10.0437 164.073 9.18876 163 9.18876ZM163 1.30522C163.367 1.30522 163.667 1.5989 163.667 1.95783C163.667 2.31677 163.367 2.61044 163 2.61044C162.633 2.61044 162.333 2.31677 162.333 1.95783C162.333 1.5989 162.633 1.30522 163 1.30522ZM155 7.17871C154.633 7.17871 154.333 6.88504 154.333 6.5261C154.333 6.16717 154.633 5.87349 155 5.87349C155.367 5.87349 155.667 6.16717 155.667 6.5261C155.667 6.88504 155.367 7.17871 155 7.17871ZM163 11.76C162.633 11.76 162.333 11.4664 162.333 11.1074C162.333 10.7485 162.633 10.4548 163 10.4548C163.367 10.4548 163.667 10.7485 163.667 11.1074C163.667 11.4664 163.367 11.76 163 11.76Z" fill="#A1A6B4"/>
<path d="M173.192 6.256C174.227 5.56267 175.363 5.216 176.6 5.216C177.592 5.216 178.461 5.52 179.208 6.128C179.955 6.72533 180.328 7.55733 180.328 8.624C180.328 9.744 179.955 10.6187 179.208 11.248C178.472 11.8773 177.544 12.192 176.424 12.192C174.888 12.192 173.736 11.7173 172.968 10.768C172.211 9.808 171.832 8.464 171.832 6.736C171.832 4.816 172.285 3.37067 173.192 2.4C174.109 1.41867 175.304 0.927999 176.776 0.927999C177.725 0.927999 178.605 1.136 179.416 1.552V2.832C178.627 2.416 177.757 2.208 176.808 2.208C175.805 2.208 174.968 2.53333 174.296 3.184C173.635 3.824 173.267 4.848 173.192 6.256ZM173.208 7.6C173.411 9.82933 174.451 10.944 176.328 10.944C177.117 10.944 177.752 10.7627 178.232 10.4C178.723 10.0373 178.968 9.46667 178.968 8.688C178.968 7.89867 178.717 7.33333 178.216 6.992C177.715 6.64 177.064 6.464 176.264 6.464C175.08 6.464 174.061 6.84267 173.208 7.6ZM182.106 3.744C182.106 2.976 182.442 2.31467 183.114 1.76C183.786 1.20533 184.772 0.927999 186.074 0.927999C187.279 0.927999 188.25 1.22133 188.986 1.808C189.722 2.39467 190.1 3.09867 190.122 3.92C190.154 5.04 189.658 5.95733 188.634 6.672C189.882 7.29067 190.506 8.144 190.506 9.232C190.506 10.064 190.138 10.768 189.402 11.344C188.676 11.9093 187.599 12.192 186.17 12.192C184.751 12.192 183.652 11.8827 182.874 11.264C182.106 10.6453 181.722 9.89333 181.722 9.008C181.722 8.47467 181.876 7.94667 182.186 7.424C182.506 6.89067 182.97 6.44267 183.578 6.08C182.596 5.48267 182.106 4.704 182.106 3.744ZM186.234 7.104C185.679 6.95467 185.172 6.79467 184.714 6.624C184.18 6.88 183.77 7.21067 183.482 7.616C183.204 8.02133 183.066 8.43733 183.066 8.864C183.066 9.51467 183.332 10.0267 183.866 10.4C184.41 10.7627 185.188 10.944 186.202 10.944C187.055 10.944 187.759 10.7947 188.314 10.496C188.879 10.1867 189.161 9.78667 189.161 9.296C189.161 8.88 189.012 8.528 188.714 8.24C188.426 7.94133 188.143 7.73867 187.866 7.632C187.588 7.52533 187.13 7.376 186.49 7.184C186.372 7.152 186.287 7.12533 186.234 7.104ZM188.778 4.16C188.778 3.59467 188.538 3.12533 188.058 2.752C187.578 2.368 186.906 2.176 186.042 2.176C185.252 2.176 184.623 2.32533 184.154 2.624C183.684 2.912 183.45 3.28 183.45 3.728C183.45 4.03733 183.514 4.30933 183.642 4.544C183.78 4.768 183.983 4.96 184.25 5.12C184.527 5.26933 184.778 5.392 185.002 5.488C185.226 5.57333 185.524 5.66933 185.898 5.776C185.94 5.78667 185.972 5.79733 185.994 5.808C186.015 5.808 186.042 5.81333 186.074 5.824C186.106 5.83467 186.138 5.84533 186.17 5.856C186.202 5.86667 186.383 5.92 186.714 6.016C187.055 6.10133 187.316 6.17067 187.498 6.224C188.351 5.66933 188.778 4.98133 188.778 4.16Z" fill="#A1A6B4"/>
</g>
<defs>
<clipPath id="clip0_88391_2275">
<rect width="45" height="16" fill="white"/>
</clipPath>
<clipPath id="clip1_88391_2275">
<rect width="48" height="16" fill="white" transform="translate(75)"/>
</clipPath>
<clipPath id="clip2_88391_2275">
<rect width="39" height="16" fill="white" transform="translate(153)"/>
</clipPath>
</defs>
</svg>
