<svg width="163" height="16" viewBox="0 0 163 16" fill="none" xmlns="http://www.w3.org/2000/svg">
<g clip-path="url(#clip0_88391_2166)">
<path fill-rule="evenodd" clip-rule="evenodd" d="M1.3 11.331L8.29606 6.5L1.3 1.66897V11.331ZM0.666238 1.23131L0.669532 1.23361L0.666238 1.23131ZM1.41031 12.8347L9.64301 7.14971C10.119 6.82485 10.119 6.17514 9.64301 5.85029L1.41031 0.165315C0.828559 -0.240754 0 0.149072 0 0.815026V12.185C0 12.8509 0.828559 13.2408 1.41031 12.8347Z" fill="#A1A6B4"/>
<path d="M17.168 3.744C17.168 2.976 17.504 2.31467 18.176 1.76C18.848 1.20533 19.8347 0.927999 21.136 0.927999C22.3413 0.927999 23.312 1.22133 24.048 1.808C24.784 2.39467 25.1627 3.09867 25.184 3.92C25.216 5.04 24.72 5.95733 23.696 6.672C24.944 7.29067 25.568 8.144 25.568 9.232C25.568 10.064 25.2 10.768 24.464 11.344C23.7387 11.9093 22.6613 12.192 21.232 12.192C19.8133 12.192 18.7147 11.8827 17.936 11.264C17.168 10.6453 16.784 9.89333 16.784 9.008C16.784 8.47467 16.9387 7.94667 17.248 7.424C17.568 6.89067 18.032 6.44267 18.64 6.08C17.6587 5.48267 17.168 4.704 17.168 3.744ZM21.296 7.104C20.7413 6.95467 20.2347 6.79467 19.776 6.624C19.2427 6.88 18.832 7.21067 18.544 7.616C18.2667 8.02133 18.128 8.43733 18.128 8.864C18.128 9.51467 18.3947 10.0267 18.928 10.4C19.472 10.7627 20.2507 10.944 21.264 10.944C22.1173 10.944 22.8213 10.7947 23.376 10.496C23.9413 10.1867 24.224 9.78667 24.224 9.296C24.224 8.88 24.0747 8.528 23.776 8.24C23.488 7.94133 23.2053 7.73867 22.928 7.632C22.6507 7.52533 22.192 7.376 21.552 7.184C21.4347 7.152 21.3493 7.12533 21.296 7.104ZM23.84 4.16C23.84 3.59467 23.6 3.12533 23.12 2.752C22.64 2.368 21.968 2.176 21.104 2.176C20.3147 2.176 19.6853 2.32533 19.216 2.624C18.7467 2.912 18.512 3.28 18.512 3.728C18.512 4.03733 18.576 4.30933 18.704 4.544C18.8427 4.768 19.0453 4.96 19.312 5.12C19.5893 5.26933 19.84 5.392 20.064 5.488C20.288 5.57333 20.5867 5.66933 20.96 5.776C21.0027 5.78667 21.0347 5.79733 21.056 5.808C21.0773 5.808 21.104 5.81333 21.136 5.824C21.168 5.83467 21.2 5.84533 21.232 5.856C21.264 5.86667 21.4453 5.92 21.776 6.016C22.1173 6.10133 22.3787 6.17067 22.56 6.224C23.4133 5.66933 23.84 4.98133 23.84 4.16ZM26.7914 1.12H34.6314V2.336L30.0874 12H28.6474L33.1594 2.4H26.7914V1.12Z" fill="#A1A6B4"/>
</g>
<g clip-path="url(#clip1_88391_2166)">
<path d="M74.425 0C73.294 0 72.2085 0.5297 71.5 1.36676C70.7915 0.5297 69.706 0 68.575 0C66.573 0 65 1.58256 65 3.59673C65 6.06866 67.21 8.08283 70.5575 11.1433L71.5 12L72.4425 11.1368C75.79 8.08283 78 6.06866 78 3.59673C78 1.58256 76.427 0 74.425 0ZM71.565 10.1689L71.5 10.2343L71.435 10.1689C68.341 7.35041 66.3 5.48665 66.3 3.59673C66.3 2.28883 67.275 1.3079 68.575 1.3079C69.576 1.3079 70.551 1.95531 70.8955 2.85123H72.111C72.449 1.95531 73.424 1.3079 74.425 1.3079C75.725 1.3079 76.7 2.28883 76.7 3.59673C76.7 5.48665 74.659 7.35041 71.565 10.1689Z" fill="#A1A6B4"/>
<path d="M90.336 1.12H91.792V8.336H93.84V9.584H91.792V12H90.464V9.584H84.4V8.384L90.336 1.12ZM90.464 8.336V2.928L86.048 8.336H90.464ZM100.649 1.12H102.105V8.336H104.153V9.584H102.105V12H100.777V9.584H94.7125V8.384L100.649 1.12ZM100.777 8.336V2.928L96.3605 8.336H100.777Z" fill="#A1A6B4"/>
</g>
<g clip-path="url(#clip2_88391_2166)">
<path d="M145 9.18876C144.493 9.18876 144.04 9.38454 143.693 9.69127L138.94 6.98293C138.973 6.83283 139 6.68273 139 6.5261C139 6.36948 138.973 6.21938 138.94 6.06928L143.64 3.38705C144 3.71335 144.473 3.91566 145 3.91566C146.107 3.91566 147 3.04116 147 1.95783C147 0.874498 146.107 0 145 0C143.893 0 143 0.874498 143 1.95783C143 2.11446 143.027 2.26456 143.06 2.41466L138.36 5.09689C138 4.77058 137.527 4.56827 137 4.56827C135.893 4.56827 135 5.44277 135 6.5261C135 7.60944 135.893 8.48394 137 8.48394C137.527 8.48394 138 8.28163 138.36 7.95532L143.107 10.6702C143.073 10.8072 143.053 10.9508 143.053 11.0944C143.053 12.1451 143.927 13 145 13C146.073 13 146.947 12.1451 146.947 11.0944C146.947 10.0437 146.073 9.18876 145 9.18876ZM145 1.30522C145.367 1.30522 145.667 1.5989 145.667 1.95783C145.667 2.31677 145.367 2.61044 145 2.61044C144.633 2.61044 144.333 2.31677 144.333 1.95783C144.333 1.5989 144.633 1.30522 145 1.30522ZM137 7.17871C136.633 7.17871 136.333 6.88504 136.333 6.5261C136.333 6.16717 136.633 5.87349 137 5.87349C137.367 5.87349 137.667 6.16717 137.667 6.5261C137.667 6.88504 137.367 7.17871 137 7.17871ZM145 11.76C144.633 11.76 144.333 11.4664 144.333 11.1074C144.333 10.7485 144.633 10.4548 145 10.4548C145.367 10.4548 145.667 10.7485 145.667 11.1074C145.667 11.4664 145.367 11.76 145 11.76Z" fill="#A1A6B4"/>
<path d="M154.504 1.12H161.032V2.4H155.768L155.576 5.472C156.152 5.312 156.771 5.232 157.432 5.232C157.976 5.232 158.483 5.296 158.952 5.424C159.421 5.54133 159.853 5.73333 160.248 6C160.653 6.256 160.973 6.61867 161.208 7.088C161.443 7.54667 161.56 8.09067 161.56 8.72C161.56 9.79733 161.16 10.6453 160.36 11.264C159.571 11.8827 158.563 12.192 157.336 12.192C156.013 12.192 154.851 11.9467 153.848 11.456V10.176C154.808 10.688 155.917 10.944 157.176 10.944C158.093 10.944 158.824 10.752 159.368 10.368C159.923 9.984 160.2 9.43467 160.2 8.72C160.2 7.20533 159.123 6.448 156.968 6.448C156.029 6.448 155.091 6.61867 154.152 6.96L154.504 1.12Z" fill="#A1A6B4"/>
</g>
<defs>
<clipPath id="clip0_88391_2166">
<rect width="35" height="16" fill="white"/>
</clipPath>
<clipPath id="clip1_88391_2166">
<rect width="40" height="16" fill="white" transform="translate(65)"/>
</clipPath>
<clipPath id="clip2_88391_2166">
<rect width="28" height="16" fill="white" transform="translate(135)"/>
</clipPath>
</defs>
</svg>
