<svg width="170" height="16" viewBox="0 0 170 16" fill="none" xmlns="http://www.w3.org/2000/svg">
<g clip-path="url(#clip0_88391_1593)">
<path fill-rule="evenodd" clip-rule="evenodd" d="M1.3 11.331L8.29606 6.5L1.3 1.66897V11.331ZM0.666238 1.23131L0.669532 1.23361L0.666238 1.23131ZM1.41031 12.8347L9.64301 7.14971C10.119 6.82485 10.119 6.17514 9.64301 5.85029L1.41031 0.165315C0.828559 -0.240754 0 0.149072 0 0.815026V12.185C0 12.8509 0.828559 13.2408 1.41031 12.8347Z" fill="#A1A6B4"/>
<path d="M17.504 1.12H24.032V2.4H18.768L18.576 5.472C19.152 5.312 19.7707 5.232 20.432 5.232C20.976 5.232 21.4827 5.296 21.952 5.424C22.4213 5.54133 22.8533 5.73333 23.248 6C23.6533 6.256 23.9733 6.61867 24.208 7.088C24.4427 7.54667 24.56 8.09067 24.56 8.72C24.56 9.79733 24.16 10.6453 23.36 11.264C22.5707 11.8827 21.5627 12.192 20.336 12.192C19.0133 12.192 17.8507 11.9467 16.848 11.456V10.176C17.808 10.688 18.9173 10.944 20.176 10.944C21.0933 10.944 21.824 10.752 22.368 10.368C22.9227 9.984 23.2 9.43467 23.2 8.72C23.2 7.20533 22.1227 6.448 19.968 6.448C19.0293 6.448 18.0907 6.61867 17.152 6.96L17.504 1.12ZM26.7696 1.12H33.2976V2.4H28.0336L27.8416 5.472C28.4176 5.312 29.0363 5.232 29.6976 5.232C30.2416 5.232 30.7483 5.296 31.2176 5.424C31.687 5.54133 32.119 5.73333 32.5136 6C32.919 6.256 33.239 6.61867 33.4736 7.088C33.7083 7.54667 33.8256 8.09067 33.8256 8.72C33.8256 9.79733 33.4256 10.6453 32.6256 11.264C31.8363 11.8827 30.8283 12.192 29.6016 12.192C28.279 12.192 27.1163 11.9467 26.1136 11.456V10.176C27.0736 10.688 28.183 10.944 29.4416 10.944C30.359 10.944 31.0896 10.752 31.6336 10.368C32.1883 9.984 32.4656 9.43467 32.4656 8.72C32.4656 7.20533 31.3883 6.448 29.2336 6.448C28.295 6.448 27.3563 6.61867 26.4176 6.96L26.7696 1.12Z" fill="#A1A6B4"/>
</g>
<g clip-path="url(#clip1_88391_1593)">
<path d="M74.425 0C73.294 0 72.2085 0.5297 71.5 1.36676C70.7915 0.5297 69.706 0 68.575 0C66.573 0 65 1.58256 65 3.59673C65 6.06866 67.21 8.08283 70.5575 11.1433L71.5 12L72.4425 11.1368C75.79 8.08283 78 6.06866 78 3.59673C78 1.58256 76.427 0 74.425 0ZM71.565 10.1689L71.5 10.2343L71.435 10.1689C68.341 7.35041 66.3 5.48665 66.3 3.59673C66.3 2.28883 67.275 1.3079 68.575 1.3079C69.576 1.3079 70.551 1.95531 70.8955 2.85123H72.111C72.449 1.95531 73.424 1.3079 74.425 1.3079C75.725 1.3079 76.7 2.28883 76.7 3.59673C76.7 5.48665 74.659 7.35041 71.565 10.1689Z" fill="#A1A6B4"/>
<path d="M85.088 1.984C86.1013 1.28 87.264 0.927999 88.576 0.927999C89.7067 0.927999 90.608 1.184 91.28 1.696C91.952 2.208 92.288 2.92267 92.288 3.84C92.288 4.27733 92.2027 4.688 92.032 5.072C91.872 5.456 91.6267 5.808 91.296 6.128C90.976 6.448 90.6613 6.72 90.352 6.944C90.0533 7.15733 89.6747 7.39733 89.216 7.664C89.1627 7.696 88.9973 7.792 88.72 7.952C88.4533 8.112 88.2827 8.21333 88.208 8.256C88.144 8.29867 87.9947 8.39467 87.76 8.544C87.536 8.68267 87.3867 8.784 87.312 8.848C87.248 8.912 87.1307 9.01333 86.96 9.152C86.8 9.29067 86.688 9.408 86.624 9.504C86.5707 9.6 86.496 9.72267 86.4 9.872C86.3147 10.0107 86.256 10.1493 86.224 10.288C86.192 10.4267 86.176 10.576 86.176 10.736L92.368 10.72V12H84.704V11.36C84.704 10.7627 84.8 10.224 84.992 9.744C85.184 9.25333 85.456 8.83733 85.808 8.496C86.1707 8.144 86.528 7.85067 86.88 7.616C87.232 7.37067 87.6427 7.10933 88.112 6.832C88.2187 6.77867 88.2987 6.736 88.352 6.704C89.3227 6.13867 89.9573 5.70667 90.256 5.408C90.7147 4.93867 90.944 4.41067 90.944 3.824C90.944 3.29067 90.7253 2.88533 90.288 2.608C89.8613 2.32 89.2533 2.176 88.464 2.176C87.312 2.176 86.1867 2.56 85.088 3.328V1.984ZM95.2195 10.64C94.4088 9.60533 94.0035 8.24533 94.0035 6.56C94.0035 4.87467 94.4088 3.51467 95.2195 2.48C96.0302 1.44533 97.2248 0.927999 98.8035 0.927999C100.393 0.927999 101.593 1.44533 102.404 2.48C103.214 3.504 103.62 4.864 103.62 6.56C103.62 8.256 103.214 9.62133 102.404 10.656C101.593 11.68 100.393 12.192 98.8035 12.192C97.2248 12.192 96.0302 11.6747 95.2195 10.64ZM101.396 9.792C101.972 9.03467 102.26 7.95733 102.26 6.56C102.26 5.16267 101.972 4.09067 101.396 3.344C100.83 2.58667 99.9662 2.208 98.8035 2.208C97.6408 2.208 96.7768 2.58667 96.2115 3.344C95.6462 4.09067 95.3635 5.16267 95.3635 6.56C95.3635 7.95733 95.6462 9.03467 96.2115 9.792C96.7768 10.5387 97.6408 10.912 98.8035 10.912C99.9662 10.912 100.83 10.5387 101.396 9.792Z" fill="#A1A6B4"/>
</g>
<g clip-path="url(#clip2_88391_1593)">
<path d="M145 9.18876C144.493 9.18876 144.04 9.38454 143.693 9.69127L138.94 6.98293C138.973 6.83283 139 6.68273 139 6.5261C139 6.36948 138.973 6.21938 138.94 6.06928L143.64 3.38705C144 3.71335 144.473 3.91566 145 3.91566C146.107 3.91566 147 3.04116 147 1.95783C147 0.874498 146.107 0 145 0C143.893 0 143 0.874498 143 1.95783C143 2.11446 143.027 2.26456 143.06 2.41466L138.36 5.09689C138 4.77058 137.527 4.56827 137 4.56827C135.893 4.56827 135 5.44277 135 6.5261C135 7.60944 135.893 8.48394 137 8.48394C137.527 8.48394 138 8.28163 138.36 7.95532L143.107 10.6702C143.073 10.8072 143.053 10.9508 143.053 11.0944C143.053 12.1451 143.927 13 145 13C146.073 13 146.947 12.1451 146.947 11.0944C146.947 10.0437 146.073 9.18876 145 9.18876ZM145 1.30522C145.367 1.30522 145.667 1.5989 145.667 1.95783C145.667 2.31677 145.367 2.61044 145 2.61044C144.633 2.61044 144.333 2.31677 144.333 1.95783C144.333 1.5989 144.633 1.30522 145 1.30522ZM137 7.17871C136.633 7.17871 136.333 6.88504 136.333 6.5261C136.333 6.16717 136.633 5.87349 137 5.87349C137.367 5.87349 137.667 6.16717 137.667 6.5261C137.667 6.88504 137.367 7.17871 137 7.17871ZM145 11.76C144.633 11.76 144.333 11.4664 144.333 11.1074C144.333 10.7485 144.633 10.4548 145 10.4548C145.367 10.4548 145.667 10.7485 145.667 11.1074C145.667 11.4664 145.367 11.76 145 11.76Z" fill="#A1A6B4"/>
<path d="M156.488 1.12H157.48V10.72H159.512V12H153.848V10.72H156.136V2.544L153.848 3.408V2.128L156.488 1.12ZM160.963 1.984C161.976 1.28 163.139 0.927999 164.451 0.927999C165.582 0.927999 166.483 1.184 167.155 1.696C167.827 2.208 168.163 2.92267 168.163 3.84C168.163 4.27733 168.078 4.688 167.907 5.072C167.747 5.456 167.502 5.808 167.171 6.128C166.851 6.448 166.536 6.72 166.227 6.944C165.928 7.15733 165.55 7.39733 165.091 7.664C165.038 7.696 164.872 7.792 164.595 7.952C164.328 8.112 164.158 8.21333 164.083 8.256C164.019 8.29867 163.87 8.39467 163.635 8.544C163.411 8.68267 163.262 8.784 163.187 8.848C163.123 8.912 163.006 9.01333 162.835 9.152C162.675 9.29067 162.563 9.408 162.499 9.504C162.446 9.6 162.371 9.72267 162.275 9.872C162.19 10.0107 162.131 10.1493 162.099 10.288C162.067 10.4267 162.051 10.576 162.051 10.736L168.243 10.72V12H160.579V11.36C160.579 10.7627 160.675 10.224 160.867 9.744C161.059 9.25333 161.331 8.83733 161.683 8.496C162.046 8.144 162.403 7.85067 162.755 7.616C163.107 7.37067 163.518 7.10933 163.987 6.832C164.094 6.77867 164.174 6.736 164.227 6.704C165.198 6.13867 165.832 5.70667 166.131 5.408C166.59 4.93867 166.819 4.41067 166.819 3.824C166.819 3.29067 166.6 2.88533 166.163 2.608C165.736 2.32 165.128 2.176 164.339 2.176C163.187 2.176 162.062 2.56 160.963 3.328V1.984Z" fill="#A1A6B4"/>
</g>
<defs>
<clipPath id="clip0_88391_1593">
<rect width="35" height="16" fill="white"/>
</clipPath>
<clipPath id="clip1_88391_1593">
<rect width="40" height="16" fill="white" transform="translate(65)"/>
</clipPath>
<clipPath id="clip2_88391_1593">
<rect width="35" height="16" fill="white" transform="translate(135)"/>
</clipPath>
</defs>
</svg>
