<svg width="182" height="16" viewBox="0 0 182 16" fill="none" xmlns="http://www.w3.org/2000/svg">
<g clip-path="url(#clip0_88391_2240)">
<path fill-rule="evenodd" clip-rule="evenodd" d="M1.3 11.331L8.29606 6.5L1.3 1.66897V11.331ZM0.666238 1.23131L0.669532 1.23361L0.666238 1.23131ZM1.41031 12.8347L9.64301 7.14971C10.119 6.82485 10.119 6.17514 9.64301 5.85029L1.41031 0.165315C0.828559 -0.240754 0 0.149072 0 0.815026V12.185C0 12.8509 0.828559 13.2408 1.41031 12.8347Z" fill="#A1A6B4"/>
<path d="M19.488 1.12H20.48V10.72H22.512V12H16.848V10.72H19.136V2.544L16.848 3.408V2.128L19.488 1.12ZM24.907 10.64C24.0963 9.60533 23.691 8.24533 23.691 6.56C23.691 4.87467 24.0963 3.51467 24.907 2.48C25.7177 1.44533 26.9123 0.927999 28.491 0.927999C30.0803 0.927999 31.2803 1.44533 32.091 2.48C32.9017 3.504 33.307 4.864 33.307 6.56C33.307 8.256 32.9017 9.62133 32.091 10.656C31.2803 11.68 30.0803 12.192 28.491 12.192C26.9123 12.192 25.7177 11.6747 24.907 10.64ZM31.083 9.792C31.659 9.03467 31.947 7.95733 31.947 6.56C31.947 5.16267 31.659 4.09067 31.083 3.344C30.5177 2.58667 29.6537 2.208 28.491 2.208C27.3283 2.208 26.4643 2.58667 25.899 3.344C25.3337 4.09067 25.051 5.16267 25.051 6.56C25.051 7.95733 25.3337 9.03467 25.899 9.792C26.4643 10.5387 27.3283 10.912 28.491 10.912C29.6537 10.912 30.5177 10.5387 31.083 9.792ZM40.461 1.12H41.917V8.336H43.965V9.584H41.917V12H40.589V9.584H34.525V8.384L40.461 1.12ZM40.589 8.336V2.928L36.173 8.336H40.589Z" fill="#A1A6B4"/>
</g>
<g clip-path="url(#clip1_88391_2240)">
<path d="M84.425 0C83.294 0 82.2085 0.5297 81.5 1.36676C80.7915 0.5297 79.706 0 78.575 0C76.573 0 75 1.58256 75 3.59673C75 6.06866 77.21 8.08283 80.5575 11.1433L81.5 12L82.4425 11.1368C85.79 8.08283 88 6.06866 88 3.59673C88 1.58256 86.427 0 84.425 0ZM81.565 10.1689L81.5 10.2343L81.435 10.1689C78.341 7.35041 76.3 5.48665 76.3 3.59673C76.3 2.28883 77.275 1.3079 78.575 1.3079C79.576 1.3079 80.551 1.95531 80.8955 2.85123H82.111C82.449 1.95531 83.424 1.3079 84.425 1.3079C85.725 1.3079 86.7 2.28883 86.7 3.59673C86.7 5.48665 84.659 7.35041 81.565 10.1689Z" fill="#A1A6B4"/>
<path d="M95.504 1.12H102.032V2.4H96.768L96.576 5.472C97.152 5.312 97.7707 5.232 98.432 5.232C98.976 5.232 99.4827 5.296 99.952 5.424C100.421 5.54133 100.853 5.73333 101.248 6C101.653 6.256 101.973 6.61867 102.208 7.088C102.443 7.54667 102.56 8.09067 102.56 8.72C102.56 9.79733 102.16 10.6453 101.36 11.264C100.571 11.8827 99.5627 12.192 98.336 12.192C97.0133 12.192 95.8507 11.9467 94.848 11.456V10.176C95.808 10.688 96.9173 10.944 98.176 10.944C99.0933 10.944 99.824 10.752 100.368 10.368C100.923 9.984 101.2 9.43467 101.2 8.72C101.2 7.20533 100.123 6.448 97.968 6.448C97.0293 6.448 96.0907 6.61867 95.152 6.96L95.504 1.12ZM109.602 1.12H111.058V8.336H113.106V9.584H111.058V12H109.73V9.584H103.666V8.384L109.602 1.12ZM109.73 8.336V2.928L105.314 8.336H109.73Z" fill="#A1A6B4"/>
</g>
<g clip-path="url(#clip2_88391_2240)">
<path d="M154 9.18876C153.493 9.18876 153.04 9.38454 152.693 9.69127L147.94 6.98293C147.973 6.83283 148 6.68273 148 6.5261C148 6.36948 147.973 6.21938 147.94 6.06928L152.64 3.38705C153 3.71335 153.473 3.91566 154 3.91566C155.107 3.91566 156 3.04116 156 1.95783C156 0.874498 155.107 0 154 0C152.893 0 152 0.874498 152 1.95783C152 2.11446 152.027 2.26456 152.06 2.41466L147.36 5.09689C147 4.77058 146.527 4.56827 146 4.56827C144.893 4.56827 144 5.44277 144 6.5261C144 7.60944 144.893 8.48394 146 8.48394C146.527 8.48394 147 8.28163 147.36 7.95532L152.107 10.6702C152.073 10.8072 152.053 10.9508 152.053 11.0944C152.053 12.1451 152.927 13 154 13C155.073 13 155.947 12.1451 155.947 11.0944C155.947 10.0437 155.073 9.18876 154 9.18876ZM154 1.30522C154.367 1.30522 154.667 1.5989 154.667 1.95783C154.667 2.31677 154.367 2.61044 154 2.61044C153.633 2.61044 153.333 2.31677 153.333 1.95783C153.333 1.5989 153.633 1.30522 154 1.30522ZM146 7.17871C145.633 7.17871 145.333 6.88504 145.333 6.5261C145.333 6.16717 145.633 5.87349 146 5.87349C146.367 5.87349 146.667 6.16717 146.667 6.5261C146.667 6.88504 146.367 7.17871 146 7.17871ZM154 11.76C153.633 11.76 153.333 11.4664 153.333 11.1074C153.333 10.7485 153.633 10.4548 154 10.4548C154.367 10.4548 154.667 10.7485 154.667 11.1074C154.667 11.4664 154.367 11.76 154 11.76Z" fill="#A1A6B4"/>
<path d="M168.336 1.12H169.792V8.336H171.84V9.584H169.792V12H168.464V9.584H162.4V8.384L168.336 1.12ZM168.464 8.336V2.928L164.048 8.336H168.464ZM173.401 1.984C174.414 1.28 175.577 0.927999 176.889 0.927999C178.019 0.927999 178.921 1.184 179.593 1.696C180.265 2.208 180.601 2.92267 180.601 3.84C180.601 4.27733 180.515 4.688 180.345 5.072C180.185 5.456 179.939 5.808 179.609 6.128C179.289 6.448 178.974 6.72 178.665 6.944C178.366 7.15733 177.987 7.39733 177.529 7.664C177.475 7.696 177.31 7.792 177.033 7.952C176.766 8.112 176.595 8.21333 176.521 8.256C176.457 8.29867 176.307 8.39467 176.073 8.544C175.849 8.68267 175.699 8.784 175.625 8.848C175.561 8.912 175.443 9.01333 175.273 9.152C175.113 9.29067 175.001 9.408 174.937 9.504C174.883 9.6 174.809 9.72267 174.713 9.872C174.627 10.0107 174.569 10.1493 174.537 10.288C174.505 10.4267 174.489 10.576 174.489 10.736L180.681 10.72V12H173.017V11.36C173.017 10.7627 173.113 10.224 173.305 9.744C173.497 9.25333 173.769 8.83733 174.121 8.496C174.483 8.144 174.841 7.85067 175.193 7.616C175.545 7.37067 175.955 7.10933 176.424 6.832C176.531 6.77867 176.611 6.736 176.665 6.704C177.635 6.13867 178.27 5.70667 178.569 5.408C179.027 4.93867 179.257 4.41067 179.257 3.824C179.257 3.29067 179.038 2.88533 178.601 2.608C178.174 2.32 177.566 2.176 176.777 2.176C175.625 2.176 174.499 2.56 173.401 3.328V1.984Z" fill="#A1A6B4"/>
</g>
<defs>
<clipPath id="clip0_88391_2240">
<rect width="45" height="16" fill="white"/>
</clipPath>
<clipPath id="clip1_88391_2240">
<rect width="39" height="16" fill="white" transform="translate(75)"/>
</clipPath>
<clipPath id="clip2_88391_2240">
<rect width="38" height="16" fill="white" transform="translate(144)"/>
</clipPath>
</defs>
</svg>
