<svg width="166" height="16" viewBox="0 0 166 16" fill="none" xmlns="http://www.w3.org/2000/svg">
<g clip-path="url(#clip0_88391_2201)">
<path fill-rule="evenodd" clip-rule="evenodd" d="M1.3 11.331L8.29606 6.5L1.3 1.66897V11.331ZM0.666238 1.23131L0.669532 1.23361L0.666238 1.23131ZM1.41031 12.8347L9.64301 7.14971C10.119 6.82485 10.119 6.17514 9.64301 5.85029L1.41031 0.165315C0.828559 -0.240754 0 0.149072 0 0.815026V12.185C0 12.8509 0.828559 13.2408 1.41031 12.8347Z" fill="#A1A6B4"/>
<path d="M18.192 6.256C19.2267 5.56267 20.3627 5.216 21.6 5.216C22.592 5.216 23.4613 5.52 24.208 6.128C24.9547 6.72533 25.328 7.55733 25.328 8.624C25.328 9.744 24.9547 10.6187 24.208 11.248C23.472 11.8773 22.544 12.192 21.424 12.192C19.888 12.192 18.736 11.7173 17.968 10.768C17.2107 9.808 16.832 8.464 16.832 6.736C16.832 4.816 17.2853 3.37067 18.192 2.4C19.1093 1.41867 20.304 0.927999 21.776 0.927999C22.7253 0.927999 23.6053 1.136 24.416 1.552V2.832C23.6267 2.416 22.7573 2.208 21.808 2.208C20.8053 2.208 19.968 2.53333 19.296 3.184C18.6347 3.824 18.2667 4.848 18.192 6.256ZM18.208 7.6C18.4107 9.82933 19.4507 10.944 21.328 10.944C22.1173 10.944 22.752 10.7627 23.232 10.4C23.7227 10.0373 23.968 9.46667 23.968 8.688C23.968 7.89867 23.7173 7.33333 23.216 6.992C22.7147 6.64 22.064 6.464 21.264 6.464C20.08 6.464 19.0613 6.84267 18.208 7.6ZM32.2735 1.12H33.7295V8.336H35.7775V9.584H33.7295V12H32.4015V9.584H26.3375V8.384L32.2735 1.12ZM32.4015 8.336V2.928L27.9855 8.336H32.4015Z" fill="#A1A6B4"/>
</g>
<g clip-path="url(#clip1_88391_2201)">
<path d="M76.425 0C75.294 0 74.2085 0.5297 73.5 1.36676C72.7915 0.5297 71.706 0 70.575 0C68.573 0 67 1.58256 67 3.59673C67 6.06866 69.21 8.08283 72.5575 11.1433L73.5 12L74.4425 11.1368C77.79 8.08283 80 6.06866 80 3.59673C80 1.58256 78.427 0 76.425 0ZM73.565 10.1689L73.5 10.2343L73.435 10.1689C70.341 7.35041 68.3 5.48665 68.3 3.59673C68.3 2.28883 69.275 1.3079 70.575 1.3079C71.576 1.3079 72.551 1.95531 72.8955 2.85123H74.111C74.449 1.95531 75.424 1.3079 76.425 1.3079C77.725 1.3079 78.7 2.28883 78.7 3.59673C78.7 5.48665 76.659 7.35041 73.565 10.1689Z" fill="#A1A6B4"/>
<path d="M94.16 3.888C94.16 4.44267 94.0107 4.944 93.712 5.392C93.424 5.82933 93.0453 6.128 92.576 6.288C93.1307 6.45867 93.6053 6.77333 94 7.232C94.4053 7.68 94.608 8.28267 94.608 9.04C94.608 10.0533 94.2293 10.832 93.472 11.376C92.7253 11.92 91.776 12.192 90.624 12.192C89.1627 12.192 87.8987 11.952 86.832 11.472V10.144C87.8667 10.6773 89.0933 10.9387 90.512 10.928C92.3787 10.928 93.312 10.2773 93.312 8.976C93.312 7.67467 92.4267 7.024 90.656 7.024H88.992V5.744L90.512 5.76C91.28 5.76 91.8613 5.6 92.256 5.28C92.6613 4.94933 92.864 4.52267 92.864 4C92.864 3.43467 92.64 2.992 92.192 2.672C91.744 2.34133 91.1093 2.176 90.288 2.176C89.1573 2.176 88.0693 2.45333 87.024 3.008V1.696C88.0267 1.184 89.1733 0.927999 90.464 0.927999C91.5733 0.927999 92.464 1.2 93.136 1.744C93.8187 2.288 94.16 3.00267 94.16 3.888ZM97.4226 10.64C96.612 9.60533 96.2066 8.24533 96.2066 6.56C96.2066 4.87467 96.612 3.51467 97.4226 2.48C98.2333 1.44533 99.428 0.927999 101.007 0.927999C102.596 0.927999 103.796 1.44533 104.607 2.48C105.417 3.504 105.823 4.864 105.823 6.56C105.823 8.256 105.417 9.62133 104.607 10.656C103.796 11.68 102.596 12.192 101.007 12.192C99.428 12.192 98.2333 11.6747 97.4226 10.64ZM103.599 9.792C104.175 9.03467 104.463 7.95733 104.463 6.56C104.463 5.16267 104.175 4.09067 103.599 3.344C103.033 2.58667 102.169 2.208 101.007 2.208C99.844 2.208 98.98 2.58667 98.4146 3.344C97.8493 4.09067 97.5666 5.16267 97.5666 6.56C97.5666 7.95733 97.8493 9.03467 98.4146 9.792C98.98 10.5387 99.844 10.912 101.007 10.912C102.169 10.912 103.033 10.5387 103.599 9.792Z" fill="#A1A6B4"/>
</g>
<g clip-path="url(#clip2_88391_2201)">
<path d="M147 9.18876C146.493 9.18876 146.04 9.38454 145.693 9.69127L140.94 6.98293C140.973 6.83283 141 6.68273 141 6.5261C141 6.36948 140.973 6.21938 140.94 6.06928L145.64 3.38705C146 3.71335 146.473 3.91566 147 3.91566C148.107 3.91566 149 3.04116 149 1.95783C149 0.874498 148.107 0 147 0C145.893 0 145 0.874498 145 1.95783C145 2.11446 145.027 2.26456 145.06 2.41466L140.36 5.09689C140 4.77058 139.527 4.56827 139 4.56827C137.893 4.56827 137 5.44277 137 6.5261C137 7.60944 137.893 8.48394 139 8.48394C139.527 8.48394 140 8.28163 140.36 7.95532L145.107 10.6702C145.073 10.8072 145.053 10.9508 145.053 11.0944C145.053 12.1451 145.927 13 147 13C148.073 13 148.947 12.1451 148.947 11.0944C148.947 10.0437 148.073 9.18876 147 9.18876ZM147 1.30522C147.367 1.30522 147.667 1.5989 147.667 1.95783C147.667 2.31677 147.367 2.61044 147 2.61044C146.633 2.61044 146.333 2.31677 146.333 1.95783C146.333 1.5989 146.633 1.30522 147 1.30522ZM139 7.17871C138.633 7.17871 138.333 6.88504 138.333 6.5261C138.333 6.16717 138.633 5.87349 139 5.87349C139.367 5.87349 139.667 6.16717 139.667 6.5261C139.667 6.88504 139.367 7.17871 139 7.17871ZM147 11.76C146.633 11.76 146.333 11.4664 146.333 11.1074C146.333 10.7485 146.633 10.4548 147 10.4548C147.367 10.4548 147.667 10.7485 147.667 11.1074C147.667 11.4664 147.367 11.76 147 11.76Z" fill="#A1A6B4"/>
<path d="M156.168 3.744C156.168 2.976 156.504 2.31467 157.176 1.76C157.848 1.20533 158.835 0.927999 160.136 0.927999C161.341 0.927999 162.312 1.22133 163.048 1.808C163.784 2.39467 164.163 3.09867 164.184 3.92C164.216 5.04 163.72 5.95733 162.696 6.672C163.944 7.29067 164.568 8.144 164.568 9.232C164.568 10.064 164.2 10.768 163.464 11.344C162.739 11.9093 161.661 12.192 160.232 12.192C158.813 12.192 157.715 11.8827 156.936 11.264C156.168 10.6453 155.784 9.89333 155.784 9.008C155.784 8.47467 155.939 7.94667 156.248 7.424C156.568 6.89067 157.032 6.44267 157.64 6.08C156.659 5.48267 156.168 4.704 156.168 3.744ZM160.296 7.104C159.741 6.95467 159.235 6.79467 158.776 6.624C158.243 6.88 157.832 7.21067 157.544 7.616C157.267 8.02133 157.128 8.43733 157.128 8.864C157.128 9.51467 157.395 10.0267 157.928 10.4C158.472 10.7627 159.251 10.944 160.264 10.944C161.117 10.944 161.821 10.7947 162.376 10.496C162.941 10.1867 163.224 9.78667 163.224 9.296C163.224 8.88 163.075 8.528 162.776 8.24C162.488 7.94133 162.205 7.73867 161.928 7.632C161.651 7.52533 161.192 7.376 160.552 7.184C160.435 7.152 160.349 7.12533 160.296 7.104ZM162.84 4.16C162.84 3.59467 162.6 3.12533 162.12 2.752C161.64 2.368 160.968 2.176 160.104 2.176C159.315 2.176 158.685 2.32533 158.216 2.624C157.747 2.912 157.512 3.28 157.512 3.728C157.512 4.03733 157.576 4.30933 157.704 4.544C157.843 4.768 158.045 4.96 158.312 5.12C158.589 5.26933 158.84 5.392 159.064 5.488C159.288 5.57333 159.587 5.66933 159.96 5.776C160.003 5.78667 160.035 5.79733 160.056 5.808C160.077 5.808 160.104 5.81333 160.136 5.824C160.168 5.83467 160.2 5.84533 160.232 5.856C160.264 5.86667 160.445 5.92 160.776 6.016C161.117 6.10133 161.379 6.17067 161.56 6.224C162.413 5.66933 162.84 4.98133 162.84 4.16Z" fill="#A1A6B4"/>
</g>
<defs>
<clipPath id="clip0_88391_2201">
<rect width="37" height="16" fill="white"/>
</clipPath>
<clipPath id="clip1_88391_2201">
<rect width="40" height="16" fill="white" transform="translate(67)"/>
</clipPath>
<clipPath id="clip2_88391_2201">
<rect width="29" height="16" fill="white" transform="translate(137)"/>
</clipPath>
</defs>
</svg>
