<svg width="181" height="16" viewBox="0 0 181 16" fill="none" xmlns="http://www.w3.org/2000/svg">
<g clip-path="url(#clip0_88391_2127)">
<path fill-rule="evenodd" clip-rule="evenodd" d="M1.3 11.331L8.29606 6.5L1.3 1.66897V11.331ZM0.666238 1.23131L0.669532 1.23361L0.666238 1.23131ZM1.41031 12.8347L9.64301 7.14971C10.119 6.82485 10.119 6.17514 9.64301 5.85029L1.41031 0.165315C0.828559 -0.240754 0 0.149072 0 0.815026V12.185C0 12.8509 0.828559 13.2408 1.41031 12.8347Z" fill="#A1A6B4"/>
<path d="M17.088 1.984C18.1013 1.28 19.264 0.927999 20.576 0.927999C21.7067 0.927999 22.608 1.184 23.28 1.696C23.952 2.208 24.288 2.92267 24.288 3.84C24.288 4.27733 24.2027 4.688 24.032 5.072C23.872 5.456 23.6267 5.808 23.296 6.128C22.976 6.448 22.6613 6.72 22.352 6.944C22.0533 7.15733 21.6747 7.39733 21.216 7.664C21.1627 7.696 20.9973 7.792 20.72 7.952C20.4533 8.112 20.2827 8.21333 20.208 8.256C20.144 8.29867 19.9947 8.39467 19.76 8.544C19.536 8.68267 19.3867 8.784 19.312 8.848C19.248 8.912 19.1307 9.01333 18.96 9.152C18.8 9.29067 18.688 9.408 18.624 9.504C18.5707 9.6 18.496 9.72267 18.4 9.872C18.3147 10.0107 18.256 10.1493 18.224 10.288C18.192 10.4267 18.176 10.576 18.176 10.736L24.368 10.72V12H16.704V11.36C16.704 10.7627 16.8 10.224 16.992 9.744C17.184 9.25333 17.456 8.83733 17.808 8.496C18.1707 8.144 18.528 7.85067 18.88 7.616C19.232 7.37067 19.6427 7.10933 20.112 6.832C20.2187 6.77867 20.2987 6.736 20.352 6.704C21.3227 6.13867 21.9573 5.70667 22.256 5.408C22.7147 4.93867 22.944 4.41067 22.944 3.824C22.944 3.29067 22.7253 2.88533 22.288 2.608C21.8613 2.32 21.2533 2.176 20.464 2.176C19.312 2.176 18.1867 2.56 17.088 3.328V1.984ZM27.2195 10.64C26.4088 9.60533 26.0035 8.24533 26.0035 6.56C26.0035 4.87467 26.4088 3.51467 27.2195 2.48C28.0302 1.44533 29.2248 0.927999 30.8035 0.927999C32.3928 0.927999 33.5928 1.44533 34.4035 2.48C35.2142 3.504 35.6195 4.864 35.6195 6.56C35.6195 8.256 35.2142 9.62133 34.4035 10.656C33.5928 11.68 32.3928 12.192 30.8035 12.192C29.2248 12.192 28.0302 11.6747 27.2195 10.64ZM33.3955 9.792C33.9715 9.03467 34.2595 7.95733 34.2595 6.56C34.2595 5.16267 33.9715 4.09067 33.3955 3.344C32.8302 2.58667 31.9662 2.208 30.8035 2.208C29.6408 2.208 28.7768 2.58667 28.2115 3.344C27.6462 4.09067 27.3635 5.16267 27.3635 6.56C27.3635 7.95733 27.6462 9.03467 28.2115 9.792C28.7768 10.5387 29.6408 10.912 30.8035 10.912C31.9662 10.912 32.8302 10.5387 33.3955 9.792ZM36.8695 1.12H44.7095V2.336L40.1655 12H38.7255L43.2375 2.4H36.8695V1.12Z" fill="#A1A6B4"/>
</g>
<g clip-path="url(#clip1_88391_2127)">
<path d="M85.425 0C84.294 0 83.2085 0.5297 82.5 1.36676C81.7915 0.5297 80.706 0 79.575 0C77.573 0 76 1.58256 76 3.59673C76 6.06866 78.21 8.08283 81.5575 11.1433L82.5 12L83.4425 11.1368C86.79 8.08283 89 6.06866 89 3.59673C89 1.58256 87.427 0 85.425 0ZM82.565 10.1689L82.5 10.2343L82.435 10.1689C79.341 7.35041 77.3 5.48665 77.3 3.59673C77.3 2.28883 78.275 1.3079 79.575 1.3079C80.576 1.3079 81.551 1.95531 81.8955 2.85123H83.111C83.449 1.95531 84.424 1.3079 85.425 1.3079C86.725 1.3079 87.7 2.28883 87.7 3.59673C87.7 5.48665 85.659 7.35041 82.565 10.1689Z" fill="#A1A6B4"/>
<path d="M103.16 3.888C103.16 4.44267 103.011 4.944 102.712 5.392C102.424 5.82933 102.045 6.128 101.576 6.288C102.131 6.45867 102.605 6.77333 103 7.232C103.405 7.68 103.608 8.28267 103.608 9.04C103.608 10.0533 103.229 10.832 102.472 11.376C101.725 11.92 100.776 12.192 99.624 12.192C98.1627 12.192 96.8987 11.952 95.832 11.472V10.144C96.8667 10.6773 98.0933 10.9387 99.512 10.928C101.379 10.928 102.312 10.2773 102.312 8.976C102.312 7.67467 101.427 7.024 99.656 7.024H97.992V5.744L99.512 5.76C100.28 5.76 100.861 5.6 101.256 5.28C101.661 4.94933 101.864 4.52267 101.864 4C101.864 3.43467 101.64 2.992 101.192 2.672C100.744 2.34133 100.109 2.176 99.288 2.176C98.1573 2.176 97.0693 2.45333 96.024 3.008V1.696C97.0267 1.184 98.1733 0.927999 99.464 0.927999C100.573 0.927999 101.464 1.2 102.136 1.744C102.819 2.288 103.16 3.00267 103.16 3.888ZM110.727 1.12H112.183V8.336H114.231V9.584H112.183V12H110.855V9.584H104.791V8.384L110.727 1.12ZM110.855 8.336V2.928L106.439 8.336H110.855Z" fill="#A1A6B4"/>
</g>
<g clip-path="url(#clip2_88391_2127)">
<path d="M155 9.18876C154.493 9.18876 154.04 9.38454 153.693 9.69127L148.94 6.98293C148.973 6.83283 149 6.68273 149 6.5261C149 6.36948 148.973 6.21938 148.94 6.06928L153.64 3.38705C154 3.71335 154.473 3.91566 155 3.91566C156.107 3.91566 157 3.04116 157 1.95783C157 0.874498 156.107 0 155 0C153.893 0 153 0.874498 153 1.95783C153 2.11446 153.027 2.26456 153.06 2.41466L148.36 5.09689C148 4.77058 147.527 4.56827 147 4.56827C145.893 4.56827 145 5.44277 145 6.5261C145 7.60944 145.893 8.48394 147 8.48394C147.527 8.48394 148 8.28163 148.36 7.95532L153.107 10.6702C153.073 10.8072 153.053 10.9508 153.053 11.0944C153.053 12.1451 153.927 13 155 13C156.073 13 156.947 12.1451 156.947 11.0944C156.947 10.0437 156.073 9.18876 155 9.18876ZM155 1.30522C155.367 1.30522 155.667 1.5989 155.667 1.95783C155.667 2.31677 155.367 2.61044 155 2.61044C154.633 2.61044 154.333 2.31677 154.333 1.95783C154.333 1.5989 154.633 1.30522 155 1.30522ZM147 7.17871C146.633 7.17871 146.333 6.88504 146.333 6.5261C146.333 6.16717 146.633 5.87349 147 5.87349C147.367 5.87349 147.667 6.16717 147.667 6.5261C147.667 6.88504 147.367 7.17871 147 7.17871ZM155 11.76C154.633 11.76 154.333 11.4664 154.333 11.1074C154.333 10.7485 154.633 10.4548 155 10.4548C155.367 10.4548 155.667 10.7485 155.667 11.1074C155.667 11.4664 155.367 11.76 155 11.76Z" fill="#A1A6B4"/>
<path d="M166.488 1.12H167.48V10.72H169.512V12H163.848V10.72H166.136V2.544L163.848 3.408V2.128L166.488 1.12ZM171.043 3.744C171.043 2.976 171.379 2.31467 172.051 1.76C172.723 1.20533 173.71 0.927999 175.011 0.927999C176.216 0.927999 177.187 1.22133 177.923 1.808C178.659 2.39467 179.038 3.09867 179.059 3.92C179.091 5.04 178.595 5.95733 177.571 6.672C178.819 7.29067 179.443 8.144 179.443 9.232C179.443 10.064 179.075 10.768 178.339 11.344C177.614 11.9093 176.536 12.192 175.107 12.192C173.688 12.192 172.59 11.8827 171.811 11.264C171.043 10.6453 170.659 9.89333 170.659 9.008C170.659 8.47467 170.814 7.94667 171.123 7.424C171.443 6.89067 171.907 6.44267 172.515 6.08C171.534 5.48267 171.043 4.704 171.043 3.744ZM175.171 7.104C174.616 6.95467 174.11 6.79467 173.651 6.624C173.118 6.88 172.707 7.21067 172.419 7.616C172.142 8.02133 172.003 8.43733 172.003 8.864C172.003 9.51467 172.27 10.0267 172.803 10.4C173.347 10.7627 174.126 10.944 175.139 10.944C175.992 10.944 176.696 10.7947 177.251 10.496C177.816 10.1867 178.099 9.78667 178.099 9.296C178.099 8.88 177.95 8.528 177.651 8.24C177.363 7.94133 177.08 7.73867 176.803 7.632C176.526 7.52533 176.067 7.376 175.427 7.184C175.31 7.152 175.224 7.12533 175.171 7.104ZM177.715 4.16C177.715 3.59467 177.475 3.12533 176.995 2.752C176.515 2.368 175.843 2.176 174.979 2.176C174.19 2.176 173.56 2.32533 173.091 2.624C172.622 2.912 172.387 3.28 172.387 3.728C172.387 4.03733 172.451 4.30933 172.579 4.544C172.718 4.768 172.92 4.96 173.187 5.12C173.464 5.26933 173.715 5.392 173.939 5.488C174.163 5.57333 174.462 5.66933 174.835 5.776C174.878 5.78667 174.91 5.79733 174.931 5.808C174.952 5.808 174.979 5.81333 175.011 5.824C175.043 5.83467 175.075 5.84533 175.107 5.856C175.139 5.86667 175.32 5.92 175.651 6.016C175.992 6.10133 176.254 6.17067 176.435 6.224C177.288 5.66933 177.715 4.98133 177.715 4.16Z" fill="#A1A6B4"/>
</g>
<defs>
<clipPath id="clip0_88391_2127">
<rect width="46" height="16" fill="white"/>
</clipPath>
<clipPath id="clip1_88391_2127">
<rect width="39" height="16" fill="white" transform="translate(76)"/>
</clipPath>
<clipPath id="clip2_88391_2127">
<rect width="36" height="16" fill="white" transform="translate(145)"/>
</clipPath>
</defs>
</svg>
