<svg width="173" height="16" viewBox="0 0 173 16" fill="none" xmlns="http://www.w3.org/2000/svg">
<g clip-path="url(#clip0_88391_2353)">
<path fill-rule="evenodd" clip-rule="evenodd" d="M1.3 11.331L8.29606 6.5L1.3 1.66897V11.331ZM0.666238 1.23131L0.669532 1.23361L0.666238 1.23131ZM1.41031 12.8347L9.64301 7.14971C10.119 6.82485 10.119 6.17514 9.64301 5.85029L1.41031 0.165315C0.828559 -0.240754 0 0.149072 0 0.815026V12.185C0 12.8509 0.828559 13.2408 1.41031 12.8347Z" fill="#A1A6B4"/>
<path d="M17.088 1.984C18.1013 1.28 19.264 0.927999 20.576 0.927999C21.7067 0.927999 22.608 1.184 23.28 1.696C23.952 2.208 24.288 2.92267 24.288 3.84C24.288 4.27733 24.2027 4.688 24.032 5.072C23.872 5.456 23.6267 5.808 23.296 6.128C22.976 6.448 22.6613 6.72 22.352 6.944C22.0533 7.15733 21.6747 7.39733 21.216 7.664C21.1627 7.696 20.9973 7.792 20.72 7.952C20.4533 8.112 20.2827 8.21333 20.208 8.256C20.144 8.29867 19.9947 8.39467 19.76 8.544C19.536 8.68267 19.3867 8.784 19.312 8.848C19.248 8.912 19.1307 9.01333 18.96 9.152C18.8 9.29067 18.688 9.408 18.624 9.504C18.5707 9.6 18.496 9.72267 18.4 9.872C18.3147 10.0107 18.256 10.1493 18.224 10.288C18.192 10.4267 18.176 10.576 18.176 10.736L24.368 10.72V12H16.704V11.36C16.704 10.7627 16.8 10.224 16.992 9.744C17.184 9.25333 17.456 8.83733 17.808 8.496C18.1707 8.144 18.528 7.85067 18.88 7.616C19.232 7.37067 19.6427 7.10933 20.112 6.832C20.2187 6.77867 20.2987 6.736 20.352 6.704C21.3227 6.13867 21.9573 5.70667 22.256 5.408C22.7147 4.93867 22.944 4.41067 22.944 3.824C22.944 3.29067 22.7253 2.88533 22.288 2.608C21.8613 2.32 21.2533 2.176 20.464 2.176C19.312 2.176 18.1867 2.56 17.088 3.328V1.984ZM31.5235 1.12H32.9795V8.336H35.0275V9.584H32.9795V12H31.6515V9.584H25.5875V8.384L31.5235 1.12ZM31.6515 8.336V2.928L27.2355 8.336H31.6515Z" fill="#A1A6B4"/>
</g>
<g clip-path="url(#clip1_88391_2353)">
<path d="M75.425 0C74.294 0 73.2085 0.5297 72.5 1.36676C71.7915 0.5297 70.706 0 69.575 0C67.573 0 66 1.58256 66 3.59673C66 6.06866 68.21 8.08283 71.5575 11.1433L72.5 12L73.4425 11.1368C76.79 8.08283 79 6.06866 79 3.59673C79 1.58256 77.427 0 75.425 0ZM72.565 10.1689L72.5 10.2343L72.435 10.1689C69.341 7.35041 67.3 5.48665 67.3 3.59673C67.3 2.28883 68.275 1.3079 69.575 1.3079C70.576 1.3079 71.551 1.95531 71.8955 2.85123H73.111C73.449 1.95531 74.424 1.3079 75.425 1.3079C76.725 1.3079 77.7 2.28883 77.7 3.59673C77.7 5.48665 75.659 7.35041 72.565 10.1689Z" fill="#A1A6B4"/>
<path d="M86.504 1.12H93.032V2.4H87.768L87.576 5.472C88.152 5.312 88.7707 5.232 89.432 5.232C89.976 5.232 90.4827 5.296 90.952 5.424C91.4213 5.54133 91.8533 5.73333 92.248 6C92.6533 6.256 92.9733 6.61867 93.208 7.088C93.4427 7.54667 93.56 8.09067 93.56 8.72C93.56 9.79733 93.16 10.6453 92.36 11.264C91.5707 11.8827 90.5627 12.192 89.336 12.192C88.0133 12.192 86.8507 11.9467 85.848 11.456V10.176C86.808 10.688 87.9173 10.944 89.176 10.944C90.0933 10.944 90.824 10.752 91.368 10.368C91.9227 9.984 92.2 9.43467 92.2 8.72C92.2 7.20533 91.1227 6.448 88.968 6.448C88.0293 6.448 87.0907 6.61867 86.152 6.96L86.504 1.12ZM100.602 1.12H102.058V8.336H104.106V9.584H102.058V12H100.73V9.584H94.6656V8.384L100.602 1.12ZM100.73 8.336V2.928L96.3136 8.336H100.73Z" fill="#A1A6B4"/>
</g>
<g clip-path="url(#clip2_88391_2353)">
<path d="M145 9.18876C144.493 9.18876 144.04 9.38454 143.693 9.69127L138.94 6.98293C138.973 6.83283 139 6.68273 139 6.5261C139 6.36948 138.973 6.21938 138.94 6.06928L143.64 3.38705C144 3.71335 144.473 3.91566 145 3.91566C146.107 3.91566 147 3.04116 147 1.95783C147 0.874498 146.107 0 145 0C143.893 0 143 0.874498 143 1.95783C143 2.11446 143.027 2.26456 143.06 2.41466L138.36 5.09689C138 4.77058 137.527 4.56827 137 4.56827C135.893 4.56827 135 5.44277 135 6.5261C135 7.60944 135.893 8.48394 137 8.48394C137.527 8.48394 138 8.28163 138.36 7.95532L143.107 10.6702C143.073 10.8072 143.053 10.9508 143.053 11.0944C143.053 12.1451 143.927 13 145 13C146.073 13 146.947 12.1451 146.947 11.0944C146.947 10.0437 146.073 9.18876 145 9.18876ZM145 1.30522C145.367 1.30522 145.667 1.5989 145.667 1.95783C145.667 2.31677 145.367 2.61044 145 2.61044C144.633 2.61044 144.333 2.31677 144.333 1.95783C144.333 1.5989 144.633 1.30522 145 1.30522ZM137 7.17871C136.633 7.17871 136.333 6.88504 136.333 6.5261C136.333 6.16717 136.633 5.87349 137 5.87349C137.367 5.87349 137.667 6.16717 137.667 6.5261C137.667 6.88504 137.367 7.17871 137 7.17871ZM145 11.76C144.633 11.76 144.333 11.4664 144.333 11.1074C144.333 10.7485 144.633 10.4548 145 10.4548C145.367 10.4548 145.667 10.7485 145.667 11.1074C145.667 11.4664 145.367 11.76 145 11.76Z" fill="#A1A6B4"/>
<path d="M159.336 1.12H160.792V8.336H162.84V9.584H160.792V12H159.464V9.584H153.4V8.384L159.336 1.12ZM159.464 8.336V2.928L155.048 8.336H159.464ZM164.401 1.984C165.414 1.28 166.577 0.927999 167.889 0.927999C169.019 0.927999 169.921 1.184 170.593 1.696C171.265 2.208 171.601 2.92267 171.601 3.84C171.601 4.27733 171.515 4.688 171.345 5.072C171.185 5.456 170.939 5.808 170.609 6.128C170.289 6.448 169.974 6.72 169.665 6.944C169.366 7.15733 168.987 7.39733 168.529 7.664C168.475 7.696 168.31 7.792 168.033 7.952C167.766 8.112 167.595 8.21333 167.521 8.256C167.457 8.29867 167.307 8.39467 167.073 8.544C166.849 8.68267 166.699 8.784 166.625 8.848C166.561 8.912 166.443 9.01333 166.273 9.152C166.113 9.29067 166.001 9.408 165.937 9.504C165.883 9.6 165.809 9.72267 165.713 9.872C165.627 10.0107 165.569 10.1493 165.537 10.288C165.505 10.4267 165.489 10.576 165.489 10.736L171.681 10.72V12H164.017V11.36C164.017 10.7627 164.113 10.224 164.305 9.744C164.497 9.25333 164.769 8.83733 165.121 8.496C165.483 8.144 165.841 7.85067 166.193 7.616C166.545 7.37067 166.955 7.10933 167.424 6.832C167.531 6.77867 167.611 6.736 167.665 6.704C168.635 6.13867 169.27 5.70667 169.569 5.408C170.027 4.93867 170.257 4.41067 170.257 3.824C170.257 3.29067 170.038 2.88533 169.601 2.608C169.174 2.32 168.566 2.176 167.777 2.176C166.625 2.176 165.499 2.56 164.401 3.328V1.984Z" fill="#A1A6B4"/>
</g>
<defs>
<clipPath id="clip0_88391_2353">
<rect width="36" height="16" fill="white"/>
</clipPath>
<clipPath id="clip1_88391_2353">
<rect width="39" height="16" fill="white" transform="translate(66)"/>
</clipPath>
<clipPath id="clip2_88391_2353">
<rect width="38" height="16" fill="white" transform="translate(135)"/>
</clipPath>
</defs>
</svg>
