<svg width="171" height="16" viewBox="0 0 171 16" fill="none" xmlns="http://www.w3.org/2000/svg">
<g clip-path="url(#clip0_88391_2314)">
<path fill-rule="evenodd" clip-rule="evenodd" d="M1.3 11.331L8.29606 6.5L1.3 1.66897V11.331ZM0.666238 1.23131L0.669532 1.23361L0.666238 1.23131ZM1.41031 12.8347L9.64301 7.14971C10.119 6.82485 10.119 6.17514 9.64301 5.85029L1.41031 0.165315C0.828559 -0.240754 0 0.149072 0 0.815026V12.185C0 12.8509 0.828559 13.2408 1.41031 12.8347Z" fill="#A1A6B4"/>
<path d="M17.504 1.12H24.032V2.4H18.768L18.576 5.472C19.152 5.312 19.7707 5.232 20.432 5.232C20.976 5.232 21.4827 5.296 21.952 5.424C22.4213 5.54133 22.8533 5.73333 23.248 6C23.6533 6.256 23.9733 6.61867 24.208 7.088C24.4427 7.54667 24.56 8.09067 24.56 8.72C24.56 9.79733 24.16 10.6453 23.36 11.264C22.5707 11.8827 21.5627 12.192 20.336 12.192C19.0133 12.192 17.8507 11.9467 16.848 11.456V10.176C17.808 10.688 18.9173 10.944 20.176 10.944C21.0933 10.944 21.824 10.752 22.368 10.368C22.9227 9.984 23.2 9.43467 23.2 8.72C23.2 7.20533 22.1227 6.448 19.968 6.448C19.0293 6.448 18.0907 6.61867 17.152 6.96L17.504 1.12ZM26.4336 3.744C26.4336 2.976 26.7696 2.31467 27.4416 1.76C28.1136 1.20533 29.1003 0.927999 30.4016 0.927999C31.607 0.927999 32.5776 1.22133 33.3136 1.808C34.0496 2.39467 34.4283 3.09867 34.4496 3.92C34.4816 5.04 33.9856 5.95733 32.9616 6.672C34.2096 7.29067 34.8336 8.144 34.8336 9.232C34.8336 10.064 34.4656 10.768 33.7296 11.344C33.0043 11.9093 31.927 12.192 30.4976 12.192C29.079 12.192 27.9803 11.8827 27.2016 11.264C26.4336 10.6453 26.0496 9.89333 26.0496 9.008C26.0496 8.47467 26.2043 7.94667 26.5136 7.424C26.8336 6.89067 27.2976 6.44267 27.9056 6.08C26.9243 5.48267 26.4336 4.704 26.4336 3.744ZM30.5616 7.104C30.007 6.95467 29.5003 6.79467 29.0416 6.624C28.5083 6.88 28.0976 7.21067 27.8096 7.616C27.5323 8.02133 27.3936 8.43733 27.3936 8.864C27.3936 9.51467 27.6603 10.0267 28.1936 10.4C28.7376 10.7627 29.5163 10.944 30.5296 10.944C31.383 10.944 32.087 10.7947 32.6416 10.496C33.207 10.1867 33.4896 9.78667 33.4896 9.296C33.4896 8.88 33.3403 8.528 33.0416 8.24C32.7536 7.94133 32.471 7.73867 32.1936 7.632C31.9163 7.52533 31.4576 7.376 30.8176 7.184C30.7003 7.152 30.615 7.12533 30.5616 7.104ZM33.1056 4.16C33.1056 3.59467 32.8656 3.12533 32.3856 2.752C31.9056 2.368 31.2336 2.176 30.3696 2.176C29.5803 2.176 28.951 2.32533 28.4816 2.624C28.0123 2.912 27.7776 3.28 27.7776 3.728C27.7776 4.03733 27.8416 4.30933 27.9696 4.544C28.1083 4.768 28.311 4.96 28.5776 5.12C28.855 5.26933 29.1056 5.392 29.3296 5.488C29.5536 5.57333 29.8523 5.66933 30.2256 5.776C30.2683 5.78667 30.3003 5.79733 30.3216 5.808C30.343 5.808 30.3696 5.81333 30.4016 5.824C30.4336 5.83467 30.4656 5.84533 30.4976 5.856C30.5296 5.86667 30.711 5.92 31.0416 6.016C31.383 6.10133 31.6443 6.17067 31.8256 6.224C32.679 5.66933 33.1056 4.98133 33.1056 4.16Z" fill="#A1A6B4"/>
</g>
<g clip-path="url(#clip1_88391_2314)">
<path d="M75.425 0C74.294 0 73.2085 0.5297 72.5 1.36676C71.7915 0.5297 70.706 0 69.575 0C67.573 0 66 1.58256 66 3.59673C66 6.06866 68.21 8.08283 71.5575 11.1433L72.5 12L73.4425 11.1368C76.79 8.08283 79 6.06866 79 3.59673C79 1.58256 77.427 0 75.425 0ZM72.565 10.1689L72.5 10.2343L72.435 10.1689C69.341 7.35041 67.3 5.48665 67.3 3.59673C67.3 2.28883 68.275 1.3079 69.575 1.3079C70.576 1.3079 71.551 1.95531 71.8955 2.85123H73.111C73.449 1.95531 74.424 1.3079 75.425 1.3079C76.725 1.3079 77.7 2.28883 77.7 3.59673C77.7 5.48665 75.659 7.35041 72.565 10.1689Z" fill="#A1A6B4"/>
<path d="M86.088 1.984C87.1013 1.28 88.264 0.927999 89.576 0.927999C90.7067 0.927999 91.608 1.184 92.28 1.696C92.952 2.208 93.288 2.92267 93.288 3.84C93.288 4.27733 93.2027 4.688 93.032 5.072C92.872 5.456 92.6267 5.808 92.296 6.128C91.976 6.448 91.6613 6.72 91.352 6.944C91.0533 7.15733 90.6747 7.39733 90.216 7.664C90.1627 7.696 89.9973 7.792 89.72 7.952C89.4533 8.112 89.2827 8.21333 89.208 8.256C89.144 8.29867 88.9947 8.39467 88.76 8.544C88.536 8.68267 88.3867 8.784 88.312 8.848C88.248 8.912 88.1307 9.01333 87.96 9.152C87.8 9.29067 87.688 9.408 87.624 9.504C87.5707 9.6 87.496 9.72267 87.4 9.872C87.3147 10.0107 87.256 10.1493 87.224 10.288C87.192 10.4267 87.176 10.576 87.176 10.736L93.368 10.72V12H85.704V11.36C85.704 10.7627 85.8 10.224 85.992 9.744C86.184 9.25333 86.456 8.83733 86.808 8.496C87.1707 8.144 87.528 7.85067 87.88 7.616C88.232 7.37067 88.6427 7.10933 89.112 6.832C89.2187 6.77867 89.2987 6.736 89.352 6.704C90.3227 6.13867 90.9573 5.70667 91.256 5.408C91.7147 4.93867 91.944 4.41067 91.944 3.824C91.944 3.29067 91.7253 2.88533 91.288 2.608C90.8613 2.32 90.2533 2.176 89.464 2.176C88.312 2.176 87.1867 2.56 86.088 3.328V1.984ZM94.7955 4.496C94.7955 3.376 95.1635 2.50133 95.8995 1.872C96.6462 1.24267 97.5795 0.927999 98.6995 0.927999C100.236 0.927999 101.382 1.408 102.14 2.368C102.908 3.31733 103.292 4.656 103.292 6.384C103.292 8.304 102.833 9.75467 101.916 10.736C101.009 11.7067 99.8195 12.192 98.3475 12.192C97.3982 12.192 96.5182 11.984 95.7075 11.568V10.288C96.4968 10.704 97.3662 10.912 98.3155 10.912C99.3182 10.912 100.15 10.592 100.812 9.952C101.484 9.30133 101.857 8.272 101.932 6.864C100.886 7.55733 99.7502 7.904 98.5235 7.904C97.5315 7.904 96.6622 7.60533 95.9155 7.008C95.1688 6.4 94.7955 5.56267 94.7955 4.496ZM98.7955 2.176C98.0062 2.176 97.3662 2.35733 96.8755 2.72C96.3955 3.08267 96.1555 3.65333 96.1555 4.432C96.1555 5.22133 96.4062 5.792 96.9075 6.144C97.4088 6.48533 98.0595 6.656 98.8595 6.656C100.044 6.656 101.062 6.27733 101.916 5.52C101.713 3.29067 100.673 2.176 98.7955 2.176Z" fill="#A1A6B4"/>
</g>
<g clip-path="url(#clip2_88391_2314)">
<path d="M145 9.18876C144.493 9.18876 144.04 9.38454 143.693 9.69127L138.94 6.98293C138.973 6.83283 139 6.68273 139 6.5261C139 6.36948 138.973 6.21938 138.94 6.06928L143.64 3.38705C144 3.71335 144.473 3.91566 145 3.91566C146.107 3.91566 147 3.04116 147 1.95783C147 0.874498 146.107 0 145 0C143.893 0 143 0.874498 143 1.95783C143 2.11446 143.027 2.26456 143.06 2.41466L138.36 5.09689C138 4.77058 137.527 4.56827 137 4.56827C135.893 4.56827 135 5.44277 135 6.5261C135 7.60944 135.893 8.48394 137 8.48394C137.527 8.48394 138 8.28163 138.36 7.95532L143.107 10.6702C143.073 10.8072 143.053 10.9508 143.053 11.0944C143.053 12.1451 143.927 13 145 13C146.073 13 146.947 12.1451 146.947 11.0944C146.947 10.0437 146.073 9.18876 145 9.18876ZM145 1.30522C145.367 1.30522 145.667 1.5989 145.667 1.95783C145.667 2.31677 145.367 2.61044 145 2.61044C144.633 2.61044 144.333 2.31677 144.333 1.95783C144.333 1.5989 144.633 1.30522 145 1.30522ZM137 7.17871C136.633 7.17871 136.333 6.88504 136.333 6.5261C136.333 6.16717 136.633 5.87349 137 5.87349C137.367 5.87349 137.667 6.16717 137.667 6.5261C137.667 6.88504 137.367 7.17871 137 7.17871ZM145 11.76C144.633 11.76 144.333 11.4664 144.333 11.1074C144.333 10.7485 144.633 10.4548 145 10.4548C145.367 10.4548 145.667 10.7485 145.667 11.1074C145.667 11.4664 145.367 11.76 145 11.76Z" fill="#A1A6B4"/>
<path d="M156.488 1.12H157.48V10.72H159.512V12H153.848V10.72H156.136V2.544L153.848 3.408V2.128L156.488 1.12ZM166.211 1.12H167.667V8.336H169.715V9.584H167.667V12H166.339V9.584H160.275V8.384L166.211 1.12ZM166.339 8.336V2.928L161.923 8.336H166.339Z" fill="#A1A6B4"/>
</g>
<defs>
<clipPath id="clip0_88391_2314">
<rect width="36" height="16" fill="white"/>
</clipPath>
<clipPath id="clip1_88391_2314">
<rect width="39" height="16" fill="white" transform="translate(66)"/>
</clipPath>
<clipPath id="clip2_88391_2314">
<rect width="36" height="16" fill="white" transform="translate(135)"/>
</clipPath>
</defs>
</svg>
